<?xml version="1.0" standalone="no"?>
<!DOCTYPE svg PUBLIC "-//W3C//DTD SVG 20010904//EN"
 "http://www.w3.org/TR/2001/REC-SVG-20010904/DTD/svg10.dtd">
<svg version="1.0" xmlns="http://www.w3.org/2000/svg"
 width="512.000000pt" height="512.000000pt" viewBox="0 0 512.000000 512.000000"
 preserveAspectRatio="xMidYMid meet">

<g transform="translate(0.000000,512.000000) scale(0.100000,-0.100000)"
fill="#000000" stroke="none">
<path d="M2692 4788 l-254 -318 278 -287 c334 -347 334 -347 334 -520 l0 -113
173 -128 c104 -78 183 -144 200 -168 15 -22 40 -78 55 -125 l29 -84 411 -3
c227 -1 412 1 412 5 0 5 -54 46 -119 92 -72 50 -122 93 -125 105 -2 12 -21
118 -41 236 -20 118 -41 227 -47 243 -7 18 -87 87 -237 203 -124 97 -230 182
-236 189 -5 6 -89 215 -185 464 -124 320 -177 447 -182 434 -6 -14 -118 -541
-118 -555 0 -2 45 -37 99 -78 59 -44 106 -88 115 -107 13 -25 16 -69 16 -217
0 -209 -8 -244 -59 -270 -38 -20 -64 -20 -101 -1 -52 27 -60 57 -60 233 l0
159 -105 79 c-156 118 -151 79 -65 491 39 189 70 347 68 351 -2 4 -117 -135
-256 -310z"/>
<path d="M2096 4488 c28 -167 143 -1085 138 -1103 -11 -44 -57 -70 -240 -134
-98 -34 -184 -68 -190 -74 -6 -7 -26 -50 -44 -97 -53 -137 -67 -160 -107 -176
-43 -19 -83 -11 -117 22 -45 46 -43 68 25 236 36 89 73 164 88 179 18 19 76
44 194 84 113 39 167 62 167 72 0 19 -119 921 -126 951 -4 19 -54 -48 -272
-364 l-267 -389 -155 -91 c-85 -51 -160 -100 -166 -110 -7 -11 -38 -102 -69
-204 l-56 -185 -142 -137 -142 -138 -147 0 c-81 0 -158 -4 -171 -9 -72 -28
-91 -114 -38 -173 l29 -33 2272 0 2272 0 29 33 c23 25 29 42 29 75 0 23 -6 49
-13 57 -38 47 -5 45 -790 50 l-739 5 -45 140 c-28 87 -54 149 -68 165 -13 14
-107 86 -209 160 l-185 135 -1 145 c0 125 -3 149 -19 175 -19 30 -706 747
-721 753 -4 1 -6 -8 -4 -20z"/>
<path d="M726 2323 c20 -43 61 -132 91 -199 l55 -121 162 -136 163 -137 57
-198 c32 -108 64 -212 72 -230 12 -29 31 -42 168 -107 l154 -74 57 -238 c31
-131 59 -247 62 -259 2 -11 14 -32 26 -46 30 -35 614 -550 640 -565 12 -7 33
-12 47 -13 53 0 83 33 185 207 l100 170 180 68 c99 37 195 74 213 83 33 15 73
71 274 384 l51 79 31 186 31 187 125 31 c69 17 134 37 146 43 12 6 99 132 194
279 133 205 197 315 272 470 54 111 98 205 98 208 0 3 -830 5 -1845 5 l-1844
0 35 -77z"/>
</g>
</svg>
